<svg id="Layer_1" data-name="Layer 1" xmlns="http://www.w3.org/2000/svg" viewBox="0 0 218.7 80.4"><defs><style>.cls-1{fill:#646363}.cls-2{fill:#f39200}.cls-3{fill:#878787}.cls-4{fill:none}</style></defs><title>GatShip</title><path class="cls-1" d="M250.1 255.7v7a2.4 2.4 0 0 0 4.7 0v-7a2.4 2.4 0 0 0-4.7 0z" transform="translate(-199.9 -185.9)"/><path class="cls-2" d="M217.4 204.1s17.4-9.3 31.9 1.2 22.5 10.5 22.5 10.5 10.1 9.8 9.6 21.1c-43.9-22.3-32.8-17.1-64-32.8z" transform="translate(-199.9 -185.9)"/><path class="cls-1" d="M218 202.7c-3.1 2.1-1.4 2.2-.7 3.4a2.2 2.2 0 0 0 3.1.8c3.5-2.4 7-4.2 11.7-4.2 10.7 0 19.4 6.8 19.4 15.2l-.2 2a2.6 2.6 0 0 0 2 2.9 2.1 2.1 0 0 0 2.4-2l.2-2.9c0-11.1-10.7-20.1-23.9-20.1-5.4-.1-9.7 2-14 4.9z" transform="translate(-199.9 -185.9)"/><path class="cls-1" d="M237.1 199.8a2.6 2.6 0 0 0-.2 1 2.5 2.5 0 0 0 1.3 2.2l1.3.6c.6.3 1.8.4 2.8.9l2.6 1.2c9.4 4.5 25.6 12.7 25.8 12.8a21 21 0 0 1 7.9 16.9v.9a2.4 2.4 0 0 0 2.2 2.4 2.3 2.3 0 0 0 2.4-2.3 26.1 26.1 0 0 0-10.2-22.1l-.3-.2-29.7-14.2c-1.1-.5-5.4-1.3-5.9-.1z" transform="translate(-199.9 -185.9)"/><path class="cls-1" d="M96.6 17.3h5.8v4.81h-5.8z"/><path class="cls-1" d="M321.6 266.1c-5.6 0-9.6-1.3-13.1-4.9l3.8-3.7c2.7 2.7 5.7 3.5 9.5 3.5s7.7-2.1 7.7-5.7a5 5 0 0 0-1.5-3.9c-.9-.9-1.9-1.3-4.1-1.6l-4.4-.6a12.7 12.7 0 0 1-7-3 9.2 9.2 0 0 1-2.7-7.1c0-6.5 4.7-10.9 12.4-10.9 4.9 0 8.3 1.3 11.5 4.2l-3.6 3.5c-2.3-2.2-5-2.9-8.1-2.9s-6.8 2.5-6.8 5.8a4.4 4.4 0 0 0 1.4 3.4 8.3 8.3 0 0 0 4.2 1.7l4.2.6c3.4.5 5.4 1.4 6.9 2.8a9.7 9.7 0 0 1 3 7.6c.1 7.1-5.5 11.2-13.3 11.2zM364.4 265.6v-16.2h-18.1v16.2h-5.6v-37.1h5.6v15.9h18.1v-15.9h5.6v37.1h-5.6zM378.5 265.6v-37.1h5.6v37.1h-5.6zM406.7 251h-8.5v14.6h-5.6v-37.1h14.1c7.3 0 11.9 4.8 11.9 11.3S414 251 406.7 251zm-.3-17.5h-8.1v12.4h8.1c3.9 0 6.6-2.2 6.6-6.2s-2.7-6.2-6.6-6.2zM331.8 219.4a14.2 14.2 0 0 1-20 .3c-3.7-3.7-3.6-7.8-3.6-14.9s-.1-11.3 3.6-14.9a13.3 13.3 0 0 1 9.8-4c7.9 0 12.5 5.2 13.5 11.5h-5.7c-.9-4.1-3.7-6.5-7.8-6.5a7.5 7.5 0 0 0-5.5 2.3c-1.8 2-2.2 4.1-2.2 11.5s.4 9.6 2.2 11.6a7.4 7.4 0 0 0 5.5 2.2 7.9 7.9 0 0 0 6.1-2.6 8.4 8.4 0 0 0 1.9-5.8V208h-9.2v-4.8h14.8v5.8c-.1 4.8-.9 7.8-3.4 10.4zM364.2 223.4l-2.6-7.5h-13.1l-2.6 7.5h-6l12.8-37.1h4.5l12.8 37.1h-6zm-9-28.7l-5 16.5h9.8zM383.7 191.3v32.1H378v-32.1h-10.2v-5.1h26.1v5.1h-10.2zM201.3 202.7c-3.3 3.6-.2 10 2.4 14.5.1.1 10.2 19.7 12.9 40.2v.3c.4 2.6 3.1 7.5 10 7.4a2.4 2.4 0 0 0 0-4.9c-4.1 0-5-2.7-5.1-3.3-2.1-19.2-12.9-41-13.4-42-2.8-4.8-3.2-7.1-3.2-8.2a1.4 1.4 0 0 1 .1-.8c.7-.8 5.1 0 8.6 1.5.7.3 58.3 21.5 83.9 44.3v8.6h-52.4a2.4 2.4 0 1 0 0 4.9h54.7a2.4 2.4 0 0 0 2.4-2.4v-12.1a2.4 2.4 0 0 0-.8-1.8c-26-23.7-83.7-45-86.2-45.9s-10.3-4.2-13.9-.3zM262.8 186.2l-.2 17h5.1V191h13.5v17.1h8.9v-4.8h-4v-17.1h-23.3z" transform="translate(-199.9 -185.9)"/><path class="cls-1" d="M281.1 211.7l8.7 11.8v11.1h5.3v14.9h4.9v-19.8h-5.3v-7.8l-4-5.4h11.7v-4.8h-21.3z" transform="translate(-199.9 -185.9)"/><path class="cls-1" d="M97.5 72.4h4.8v7h-4.8zM26 74.4h7v4.86h-7z"/><path class="cls-3" d="M92.6 17.4h1.6v4.81h-1.6zM104.4 17.3h1.7v4.81h-1.7zM116.2 17.3h1.9v4.81h-1.9z"/><path class="cls-1" d="M249.8 252.9a2.3 2.3 0 1 0 0 4.5h5.2a2.3 2.3 0 1 0 0-4.5h-5.2z" transform="translate(-199.9 -185.9)"/><path class="cls-1" d="M32.2 73.3l5.8 3.6-5.8 3.5v-7.1z"/></svg>